<svg xmlns:dc="http://purl.org/dc/elements/1.1/" xmlns:cc="http://creativecommons.org/ns#" xmlns:rdf="http://www.w3.org/1999/02/22-rdf-syntax-ns#" xmlns:svg="http://www.w3.org/2000/svg" xmlns="http://www.w3.org/2000/svg" id="svg192426" viewBox="0 0 1024 768" height="768px" width="1024px" version="1.1">
  <metadata id="metadata192432">
    <rdf:rdf>
      <cc:work rdf:about="">
        <dc:format>image/svg+xml</dc:format>
        <dc:type rdf:resource="http://purl.org/dc/dcmitype/StillImage"></dc:type>
      </cc:work>
    </rdf:rdf>
  </metadata>
  <defs id="defs192430"></defs>
  <g id="logo-group">
    <g id="title" style="font-style:normal;font-weight:700;font-size:72px;line-height:1;font-family:'Brandmark1 Bold';font-variant-ligatures:none;text-align:center;text-anchor:middle" aria-label="PICLIP">
      <path id="path192434" style="font-style: normal; font-weight: 700; font-size: 72px; line-height: 1; font-family: &quot;Brandmark1 Bold&quot;; font-variant-ligatures: none; text-align: center; text-anchor: middle; fill: rgb(255, 231, 99);" d="m 405.84725,122.52 h 11.304 v -19.512 h 7.992 c 2.88,0 5.616,-0.288 7.992,-1.008 2.52,-0.72 4.752,-1.872 6.552,-3.384 1.944,-1.584 3.456,-3.528 4.392,-5.832 1.008,-2.376 1.584,-5.04 1.584,-8.064 0,-5.328 -1.656,-9.864 -4.752,-13.032 -3.384,-3.528 -8.352,-5.328 -14.688,-5.328 h -20.376 z m 18.72,-30.24 h -7.416 V 77.088 h 8.424 c 2.736,0 4.968,0.72 6.408,1.944 1.44,1.224 2.16,3.096 2.16,5.544 0,2.376 -0.72,4.248 -2.088,5.544 -1.584,1.44 -4.104,2.16 -7.488,2.16 z" transform="translate(0 172.0905577135146) translate(252 144.2699895569168) scale(2.411904604534611) translate(-405.84725 -66.36)"></path>
      <path id="path192436" style="font-style: normal; font-weight: 700; font-size: 72px; line-height: 1; font-family: &quot;Brandmark1 Bold&quot;; font-variant-ligatures: none; text-align: center; text-anchor: middle; fill: rgb(255, 231, 99);" d="m 450.3635,122.52 h 11.304 V 66.36 l -11.304,3.6 z" transform="translate(0 172.0905577135146) translate(359.368948351614 144.2699895569168) scale(2.411904604534611) translate(-450.3635 -66.36)"></path>
      <path id="path192438" style="font-style: normal; font-weight: 700; font-size: 72px; line-height: 1; font-family: &quot;Brandmark1 Bold&quot;; font-variant-ligatures: none; text-align: center; text-anchor: middle; fill: rgb(255, 231, 99);" d="m 496.043,123.024 c 9.504,0 18.36,-4.752 23.688,-12.6 l -9.36,-6.336 c -3.24,4.752 -8.568,7.632 -14.328,7.632 -4.608,0 -9,-1.8 -12.24,-5.04 -3.312,-3.312 -5.112,-7.632 -5.112,-12.312 0,-4.608 1.8,-8.928 5.112,-12.24 3.24,-3.24 7.632,-5.04 12.24,-5.04 5.76,0 11.16,2.88 14.4,7.704 l 9.36,-6.336 c -5.328,-7.92 -14.184,-12.672 -23.76,-12.672 -3.888,0 -7.632,0.72 -11.16,2.232 -3.384,1.44 -6.48,3.528 -9.072,6.12 -2.664,2.664 -4.68,5.688 -6.12,9.144 -1.512,3.528 -2.304,7.272 -2.304,11.088 0,3.888 0.792,7.632 2.304,11.16 1.44,3.384 3.456,6.48 6.12,9.072 2.592,2.664 5.688,4.752 9.072,6.192 3.528,1.44 7.272,2.232 11.16,2.232 z" transform="translate(0 172.0905577135146) translate(400.4280063869091 142.88073250470484) scale(2.411904604534611) translate(-467.387 -65.784)"></path>
      <path id="path192440" style="font-style: normal; font-weight: 700; font-size: 72px; line-height: 1; font-family: &quot;Brandmark1 Bold&quot;; font-variant-ligatures: none; text-align: center; text-anchor: middle; fill: rgb(255, 231, 99);" d="m 521.86288,122.52 h 36.576 V 111.792 H 533.16687 V 66.36 l -11.30399,3.6 z" transform="translate(0 172.0905577135146) translate(531.818632194984 144.2699895569168) scale(2.411904604534611) translate(-521.86288 -66.36)"></path>
      <path id="path192442" style="font-style: normal; font-weight: 700; font-size: 72px; line-height: 1; font-family: &quot;Brandmark1 Bold&quot;; font-variant-ligatures: none; text-align: center; text-anchor: middle; fill: rgb(255, 231, 99);" d="m 562.301,122.52 h 11.304 V 66.36 l -11.304,3.6 z" transform="translate(0 172.0905577135146) translate(629.3515200217072 144.2699895569168) scale(2.411904604534611) translate(-562.301 -66.36)"></path>
      <path id="path192444" style="font-style: normal; font-weight: 700; font-size: 72px; line-height: 1; font-family: &quot;Brandmark1 Bold&quot;; font-variant-ligatures: none; text-align: center; text-anchor: middle; fill: rgb(255, 231, 99);" d="m 581.6285,122.52 h 11.304 v -19.512 h 7.992 c 2.88,0 5.616,-0.288 7.992,-1.008 2.52,-0.72 4.752,-1.872 6.552,-3.384 1.944,-1.584 3.456,-3.528 4.392,-5.832 1.008,-2.376 1.584,-5.04 1.584,-8.064 0,-5.328 -1.656,-9.864 -4.752,-13.032 -3.384,-3.528 -8.352,-5.328 -14.688,-5.328 h -20.376 z m 18.72,-30.24 h -7.416 V 77.088 h 8.424 c 2.736,0 4.968,0.72 6.408,1.944 1.44,1.224 2.16,3.096 2.16,5.544 0,2.376 -0.72,4.248 -2.088,5.544 -1.584,1.44 -4.104,2.16 -7.488,2.16 z" transform="translate(0 172.0905577135146) translate(675.9676062658499 144.2699895569168) scale(2.411904604534611) translate(-581.6285 -66.36)"></path>
    </g>
    <g id="tagline" style="font-style:normal;font-weight:400;font-size:32px;line-height:1;font-family:Montserrat;font-variant-ligatures:none;text-align:center;text-anchor:middle"></g>
  </g>
</svg>