<svg xmlns:dc="http://purl.org/dc/elements/1.1/" xmlns:cc="http://creativecommons.org/ns#" xmlns:rdf="http://www.w3.org/1999/02/22-rdf-syntax-ns#" xmlns:svg="http://www.w3.org/2000/svg" xmlns="http://www.w3.org/2000/svg" id="svg364494" viewBox="0 0 1024 768" height="768px" width="1024px" version="1.1">
  <metadata id="metadata364500">
    <rdf:rdf>
      <cc:work rdf:about="">
        <dc:format>image/svg+xml</dc:format>
        <dc:type rdf:resource="http://purl.org/dc/dcmitype/StillImage"></dc:type>
      </cc:work>
    </rdf:rdf>
  </metadata>
  <defs id="defs364498"></defs>
  <g id="logo-group">
    <g id="title" style="font-style:oblique;font-weight:700;font-size:72px;line-height:1;font-family:Averta;font-variant-ligatures:none;text-align:center;text-anchor:middle" aria-label="snapstamp">
      <path id="path364502" style="font-style: oblique; font-weight: 700; font-size: 72px; line-height: 1; font-family: Averta; font-variant-ligatures: none; text-align: center; text-anchor: middle; fill: rgb(81, 69, 78);" d="m 354.74694,120.648 c 8.568,0 13.968,-4.536 13.968,-11.448 0,-5.544 -3.744,-8.064 -9.216,-10.8 -3.24,-1.584 -4.968,-2.736 -4.968,-3.888 0,-1.368 1.368,-2.16 2.808,-2.16 1.656,0.072 4.104,0.936 6.048,3.6 l 6.552,-6.192 c -3.168,-3.816 -7.92,-5.616 -12.672,-5.616 -7.272,0 -13.032,4.68 -13.032,11.736 0,5.184 3.24,8.064 8.568,10.728 4.032,2.088 5.472,2.664 5.472,3.96 0,1.224 -1.368,1.944 -3.24,1.944 -2.736,0 -5.904,-1.656 -7.992,-4.176 l -6.048,6.264 c 3.096,3.888 8.712,6.048 13.752,6.048 z" transform="translate(0 258.6629265785178) translate(252 97.95716807985981) scale(1.4296107634514619) translate(-340.99494 -84.144)"></path>
      <path id="path364504" style="font-style: oblique; font-weight: 700; font-size: 72px; line-height: 1; font-family: Averta; font-variant-ligatures: none; text-align: center; text-anchor: middle; fill: rgb(81, 69, 78);" d="m 377.63731,84.792 -4.392,35.208 h 10.8 l 1.584,-13.032 c 1.152,-8.784 5.76,-13.176 9,-13.176 2.304,0 2.736,2.232 2.088,7.128 l -2.52,19.08 h 10.728 l 2.808,-21.528 c 1.296,-9.864 -1.44,-14.328 -8.136,-14.328 -4.608,0 -8.496,1.944 -11.664,5.616 l -0.144,-0.072 0.576,-4.896 z" transform="translate(0 258.6629265785178) translate(302.3943083676465 97.95716807985981) scale(1.4296107634514619) translate(-373.24531 -84.144)"></path>
      <path id="path364506" style="font-style: oblique; font-weight: 700; font-size: 72px; line-height: 1; font-family: Averta; font-variant-ligatures: none; text-align: center; text-anchor: middle; fill: rgb(81, 69, 78);" d="m 424.21231,120.648 c 3.96,0 7.488,-2.16 10.08,-5.904 l 0.216,0.072 -0.648,5.184 h 10.872 l 4.32,-35.208 h -10.872 l -0.288,2.448 h -0.216 c -1.872,-1.944 -4.608,-3.096 -8.28,-3.096 -9.216,0 -16.632,9.576 -16.632,22.104 0,8.136 3.888,14.4 11.448,14.4 z m 3.456,-9.576 c -2.448,0 -4.032,-2.232 -4.032,-5.616 0,-5.256 2.88,-11.664 7.632,-11.664 2.232,0 4.248,0.864 5.832,2.52 l -0.144,1.008 c -1.224,8.856 -5.544,13.752 -9.288,13.752 z" transform="translate(0 258.6629265785178) translate(363.1799284188392 97.95716807985981) scale(1.4296107634514619) translate(-412.76431 -84.144)"></path>
      <path id="path364508" style="font-style: oblique; font-weight: 700; font-size: 72px; line-height: 1; font-family: Averta; font-variant-ligatures: none; text-align: center; text-anchor: middle; fill: rgb(135, 81, 82);" d="m 456.80919,84.792 -6.12,49.464 h 10.8 l 1.944,-15.912 0.288,-0.072 c 2.16,1.656 4.896,2.376 8.208,2.376 9.432,0 16.848,-9.576 16.848,-22.104 0,-7.992 -3.816,-14.4 -11.16,-14.4 -4.464,0 -7.992,2.304 -10.584,6.048 l -0.072,-0.144 0.648,-5.256 z m 12.24,26.28 c -1.872,0 -3.672,-0.72 -4.752,-2.16 l 0.072,-0.936 c 1.296,-9.216 5.688,-14.256 9.648,-14.256 2.448,0 3.96,2.52 3.96,5.904 0,5.832 -3.096,11.448 -8.928,11.448 z" transform="translate(0 258.6629265785178) translate(421.6865773597986 97.95716807985981) scale(1.4296107634514619) translate(-450.68919 -84.144)"></path>
      <path id="path364510" style="font-style: oblique; font-weight: 700; font-size: 72px; line-height: 1; font-family: Averta; font-variant-ligatures: none; text-align: center; text-anchor: middle; fill: rgb(135, 81, 82);" d="m 504.37194,120.648 c 8.568,0 13.968,-4.536 13.968,-11.448 0,-5.544 -3.744,-8.064 -9.216,-10.8 -3.24,-1.584 -4.968,-2.736 -4.968,-3.888 0,-1.368 1.368,-2.16 2.808,-2.16 1.656,0.072 4.104,0.936 6.048,3.6 l 6.552,-6.192 c -3.168,-3.816 -7.92,-5.616 -12.672,-5.616 -7.272,0 -13.032,4.68 -13.032,11.736 0,5.184 3.24,8.064 8.568,10.728 4.032,2.088 5.472,2.664 5.472,3.96 0,1.224 -1.368,1.944 -3.24,1.944 -2.736,0 -5.904,-1.656 -7.992,-4.176 l -6.048,6.264 c 3.096,3.888 8.712,6.048 13.752,6.048 z" transform="translate(0 258.6629265785178) translate(483.0608396428424 97.95716807985981) scale(1.4296107634514619) translate(-490.61994 -84.144)"></path>
      <path id="path364512" style="font-style: oblique; font-weight: 700; font-size: 72px; line-height: 1; font-family: Averta; font-variant-ligatures: none; text-align: center; text-anchor: middle; fill: rgb(182, 92, 86);" d="m 533.31031,120.648 c 3.24,0 6.408,-0.792 9.432,-2.448 l -1.728,-8.424 c -1.368,0.72 -2.592,1.152 -3.528,1.152 -1.152,0 -1.872,-0.936 -1.584,-2.952 l 1.728,-14.472 h 7.272 l 1.08,-8.712 h -7.272 l 1.512,-12.456 -11.016,2.16 -1.368,10.296 h -3.456 l -1.08,8.712 h 3.456 l -1.872,15.912 c -1.008,8.136 2.952,11.232 8.424,11.232 z" transform="translate(0 258.6629265785178) translate(534.0727398603 81.07632418502494) scale(1.4296107634514619) translate(-523.30231 -72.336)"></path>
      <path id="path364514" style="font-style: oblique; font-weight: 700; font-size: 72px; line-height: 1; font-family: Averta; font-variant-ligatures: none; text-align: center; text-anchor: middle; fill: rgb(182, 92, 86);" d="m 557.66544,120.648 c 3.96,0 7.488,-2.16 10.08,-5.904 l 0.216,0.072 -0.648,5.184 h 10.872 l 4.32,-35.208 h -10.872 l -0.288,2.448 h -0.216 c -1.872,-1.944 -4.608,-3.096 -8.28,-3.096 -9.216,0 -16.632,9.576 -16.632,22.104 0,8.136 3.888,14.4 11.448,14.4 z m 3.456,-9.576 c -2.448,0 -4.032,-2.232 -4.032,-5.616 0,-5.256 2.88,-11.664 7.632,-11.664 2.232,0 4.248,0.864 5.832,2.52 l -0.144,1.008 c -1.224,8.856 -5.544,13.752 -9.288,13.752 z" transform="translate(0 258.6629265785178) translate(571.1212886445439 97.95716807985981) scale(1.4296107634514619) translate(-546.21744 -84.144)"></path>
      <path id="path364516" style="font-style: oblique; font-weight: 700; font-size: 72px; line-height: 1; font-family: Averta; font-variant-ligatures: none; text-align: center; text-anchor: middle; fill: rgb(236, 104, 90);" d="m 590.26231,84.792 -4.32,35.208 h 10.8 l 1.656,-13.752 c 1.008,-8.208 5.688,-12.456 8.064,-12.456 2.448,0 2.592,2.232 1.944,7.128 l -2.52,19.08 h 10.728 l 1.728,-12.96 c 1.152,-8.928 5.76,-13.248 8.208,-13.248 2.232,0 2.592,2.232 1.944,7.128 l -2.52,19.08 h 10.728 l 2.808,-21.096 c 1.296,-10.152 -1.224,-14.76 -8.208,-14.76 -4.896,0 -8.784,1.8 -11.808,5.328 h -0.36 c -1.008,-3.672 -3.6,-5.328 -7.632,-5.328 -4.104,0 -7.776,1.8 -10.728,5.112 l -0.288,-0.072 0.576,-4.392 z" transform="translate(0 258.6629265785178) translate(632.2012226636084 97.95716807985981) scale(1.4296107634514619) translate(-585.94231 -84.144)"></path>
      <path id="path364518" style="font-style: oblique; font-weight: 700; font-size: 72px; line-height: 1; font-family: Averta; font-variant-ligatures: none; text-align: center; text-anchor: middle; fill: rgb(236, 104, 90);" d="m 648.76231,84.792 -6.12,49.464 h 10.8 l 1.944,-15.912 0.288,-0.072 c 2.16,1.656 4.896,2.376 8.208,2.376 9.432,0 16.848,-9.576 16.848,-22.104 0,-7.992 -3.816,-14.4 -11.16,-14.4 -4.464,0 -7.992,2.304 -10.584,6.048 l -0.072,-0.144 0.648,-5.256 z m 12.24,26.28 c -1.872,0 -3.672,-0.72 -4.752,-2.16 l 0.072,-0.936 c 1.296,-9.216 5.688,-14.256 9.648,-14.256 2.448,0 3.96,2.52 3.96,5.904 0,5.832 -3.096,11.448 -8.928,11.448 z" transform="translate(0 258.6629265785178) translate(717.5489852416606 97.95716807985981) scale(1.4296107634514619) translate(-642.64231 -84.144)"></path>
    </g>
    <g id="tagline" style="font-style:normal;font-weight:500;font-size:32px;line-height:1;font-family:Raleway;font-variant-ligatures:none;text-align:center;text-anchor:middle"></g>
  </g>
</svg>