<svg xmlns:dc="http://purl.org/dc/elements/1.1/" xmlns:cc="http://creativecommons.org/ns#" xmlns:rdf="http://www.w3.org/1999/02/22-rdf-syntax-ns#" xmlns:svg="http://www.w3.org/2000/svg" xmlns="http://www.w3.org/2000/svg" id="svg583517" viewBox="0 0 1024 768" height="768px" width="1024px" version="1.1">
  <metadata id="metadata583523">
    <rdf:rdf>
      <cc:work rdf:about="">
        <dc:format>image/svg+xml</dc:format>
        <dc:type rdf:resource="http://purl.org/dc/dcmitype/StillImage"></dc:type>
      </cc:work>
    </rdf:rdf>
  </metadata>
  <defs id="defs583521"></defs>
  <g id="logo-group">
    <g id="title" style="font-style:normal;font-weight:700;font-size:72px;line-height:1;font-family:'Brandmark1 Bold';font-variant-ligatures:none;text-align:center;text-anchor:middle" aria-label="uservezy">
      <path id="path583525" style="font-style: normal; font-weight: 700; font-size: 72px; line-height: 1; font-family: &quot;Brandmark1 Bold&quot;; font-variant-ligatures: none; text-align: center; text-anchor: middle; fill: rgb(254, 249, 243);" d="m 390.12538,123.024 c 4.824,0 9.35999,-1.872 12.74399,-5.256 3.384,-3.384 5.25601,-7.92 5.25601,-12.744 V 82.416 h -10.80001 v 22.608 c 0,3.96 -3.24,7.2 -7.19999,7.2 -3.96001,0 -7.20001,-3.24 -7.20001,-7.2 V 82.416 h -10.79999 v 22.608 c 0,4.824 1.87199,9.36 5.25599,12.744 3.384,3.384 7.92,5.256 12.74401,5.256 z" transform="translate(0 215.48829515234934) translate(251.99999999999994 119.62582828002034) scale(1.8325789686471115) translate(-372.12538 -82.416)"></path>
      <path id="path583527" style="font-style: normal; font-weight: 700; font-size: 72px; line-height: 1; font-family: &quot;Brandmark1 Bold&quot;; font-variant-ligatures: none; text-align: center; text-anchor: middle; fill: rgb(254, 249, 243);" d="m 428.53737,122.952 c 7.272,0 13.176,-5.904 13.176,-13.176 0,-7.272 -5.904,-13.176 -13.176,-13.176 h -3.024 c -1.08,0 -1.872,-0.864 -1.872,-1.872 0,-1.08 0.792,-1.944 1.872,-1.944 h 15.048 V 81.48 h -15.048 c -7.272,0 -13.176,5.976 -13.176,13.248 0,7.272 5.904,13.176 13.176,13.176 h 3.024 c 1.008,0 1.872,0.864 1.872,1.872 0,1.08 -0.864,1.872 -1.872,1.872 h -16.848 v 11.304 z" transform="translate(0 215.48829515234934) translate(324.50413598976456 117.91053436536664) scale(1.8325789686471115) translate(-411.68937 -81.48)"></path>
      <path id="path583529" style="font-style: normal; font-weight: 700; font-size: 72px; line-height: 1; font-family: &quot;Brandmark1 Bold&quot;; font-variant-ligatures: none; text-align: center; text-anchor: middle; fill: rgb(72, 56, 40);" d="m 462.12538,122.808 c 2.80799,0 5.54399,-0.576 8.13599,-1.728 2.52001,-1.08 4.752,-2.664 6.624,-4.608 l -7.632,-7.2 c -1.872,2.016 -4.392,3.096 -7.12799,3.096 -3.52801,0 -6.62401,-1.872 -8.35201,-4.608 h 28.584 v -5.256 c 0,-5.4 -2.08799,-10.512 -5.904,-14.328 -3.81599,-3.816 -8.928,-5.976 -14.32799,-5.976 -5.47201,0 -10.512,2.16 -14.40001,5.976 -3.816,3.816 -5.904,8.928 -5.904,14.328 0,5.4 2.088,10.512 5.904,14.328 3.88801,3.816 8.928,5.976 14.40001,5.976 z M 453.77337,97.32 c 1.728,-2.808 4.824,-4.68 8.35201,-4.68 3.45599,0 6.55199,1.872 8.35199,4.68 z" transform="translate(0 215.48829515234934) translate(379.72340547303935 119.22999122279258) scale(1.8325789686471115) translate(-441.82137 -82.2)"></path>
      <path id="path583531" style="font-style: normal; font-weight: 700; font-size: 72px; line-height: 1; font-family: &quot;Brandmark1 Bold&quot;; font-variant-ligatures: none; text-align: center; text-anchor: middle; fill: rgb(72, 56, 40);" d="m 495.65825,122.52 v 0 -17.712 c 0,-6.912 5.616,-12.6 12.6,-12.6 v -10.8 c -3.168,0 -6.264,0.648 -9.144,1.872 -2.736,1.152 -5.256,2.88 -7.416,5.04 -2.16,2.088 -3.816,4.608 -5.04,7.416 -1.224,2.88 -1.8,5.904 -1.8,9.072 v 17.712 z" transform="translate(0 215.48829515234934) translate(458.5918866372288 117.77858867962404) scale(1.8325789686471115) translate(-484.85825 -81.408)"></path>
      <path id="path583533" style="font-style: normal; font-weight: 700; font-size: 72px; line-height: 1; font-family: &quot;Brandmark1 Bold&quot;; font-variant-ligatures: none; text-align: center; text-anchor: middle; fill: rgb(194, 224, 194);" d="m 521.54337,122.52 h 9 l 16.34401,-40.104 h -11.736 l -9.072,23.328 -9,-23.328 h -11.80801 z" transform="translate(0 215.48829515234934) translate(496.00054103369854 119.62582828002034) scale(1.8325789686471115) translate(-505.27137 -82.416)"></path>
      <path id="path583535" style="font-style: normal; font-weight: 700; font-size: 72px; line-height: 1; font-family: &quot;Brandmark1 Bold&quot;; font-variant-ligatures: none; text-align: center; text-anchor: middle; fill: rgb(194, 224, 194);" d="m 562.81287,122.808 c 2.808,0 5.544,-0.576 8.13601,-1.728 2.52,-1.08 4.75199,-2.664 6.62399,-4.608 l -7.632,-7.2 c -1.87199,2.016 -4.392,3.096 -7.128,3.096 -3.52799,0 -6.62399,-1.872 -8.352,-4.608 h 28.58401 v -5.256 c 0,-5.4 -2.08801,-10.512 -5.904,-14.328 -3.816,-3.816 -8.92801,-5.976 -14.32801,-5.976 -5.472,0 -10.51199,2.16 -14.4,5.976 -3.816,3.816 -5.904,8.928 -5.904,14.328 0,5.4 2.088,10.512 5.904,14.328 3.88801,3.816 8.928,5.976 14.4,5.976 z m -8.352,-25.488 c 1.72801,-2.808 4.82401,-4.68 8.352,-4.68 3.456,0 6.552,1.872 8.35201,4.68 z" transform="translate(0 215.48829515234934) translate(564.2412003786953 119.22999122279258) scale(1.8325789686471115) translate(-542.50887 -82.2)"></path>
      <path id="path583537" style="font-style: normal; font-weight: 700; font-size: 72px; line-height: 1; font-family: &quot;Brandmark1 Bold&quot;; font-variant-ligatures: none; text-align: center; text-anchor: middle; fill: rgb(237, 238, 201);" d="m 582.24387,122.52 h 33.40801 v -10.08 h -17.856 l 17.856,-22.392 v -7.632 h -32.328 v 10.08 h 16.70399 l -17.784,22.392 z" transform="translate(0 215.48829515234934) translate(637.0587256978883 119.62582828002034) scale(1.8325789686471115) translate(-582.24387 -82.416)"></path>
      <path id="path583539" style="font-style: normal; font-weight: 700; font-size: 72px; line-height: 1; font-family: &quot;Brandmark1 Bold&quot;; font-variant-ligatures: none; text-align: center; text-anchor: middle; fill: rgb(237, 238, 201);" d="m 622.5425,136.776 h 11.448 l 21.888,-54.36 h -11.52 l -9.072,22.752 -9.648,-22.752 h -11.88 l 16.056,36.288 z" transform="translate(0 215.48829515234934) translate(694.8117738405837 119.62582828002034) scale(1.8325789686471115) translate(-613.7585 -82.416)"></path>
    </g>
    <g id="tagline" style="font-style:normal;font-weight:400;font-size:32px;line-height:1;font-family:Montserrat;font-variant-ligatures:none;text-align:center;text-anchor:middle"></g>
  </g>
</svg>